<svg xmlns="http://www.w3.org/2000/svg" width="75" height="75"><defs><clipPath id="a"><path fill="#fff" d="M37.5 0C58.21 0 75 16.79 75 37.5S58.21 75 37.5 75 0 58.21 0 37.5 16.79 0 37.5 0z"/></clipPath></defs><path fill="#f7fafc" d="M37.5 0C58.21 0 75 16.79 75 37.5S58.21 75 37.5 75 0 58.21 0 37.5 16.79 0 37.5 0z"/><path fill="none" stroke="#eee" stroke-linecap="round" stroke-linejoin="round" stroke-miterlimit="20" stroke-width="2" d="M37.5 0C58.21 0 75 16.79 75 37.5S58.21 75 37.5 75 0 58.21 0 37.5 16.79 0 37.5 0z" clip-path="url(&quot;#a&quot;)"/><text dominant-baseline="text-before-edge" style="line-height:24px" fill="#f31f79" font-family="'FontAwesome','FontAwesome'" font-size="24" font-style="none" font-weight="400" transform="translate(25 24)"><tspan style="font-kerning:normal"></tspan></text></svg>